mtllib Plane.mtl
o djBooth
v -2.0329 -2.44991 -0
v 2.0329 -2.44991 -0
v 2.0329 -1.62808 0
v -2.0329 -1.62808 0
vt 0 0.47419
vt 0.41875 0.47419
vt 0.41875 0.625232
vt 0 0.625232
vn 0 -0 1
vn 0 -0 1
vn 0 -0 1
vn 0 -0 1
usemtl None
s off
f 1/1/1 2/2/2 3/3/3 4/4/4 

o iMaggR
v 4.08694 -1.29626 0
v 4.08694 1.29626 0
v 2.50339 1.29626 0
v 2.50339 -1.29626 0
vt 0.163021 0
vt 0.326042 0
vt 0.326042 0.47419
vt 0.163021 0.47419
vn 0 -0 1
vn 0 -0 1
vn 0 -0 1
vn 0 -0 1
usemtl None
s off
f 5/5/5 6/6/6 7/7/7 8/8/8 

o centerStage
v -2.0329 -1.29626 0
v 2.0329 -1.29626 0
v 2.0329 1.29626 0
v -2.0329 1.29626 0
vt 0.326042 0
vt 0.744792 0
vt 0.744792 0.47419
vt 0.326042 0.47419
vn 0 -0 1
vn 0 -0 1
vn 0 -0 1
vn 0 -0 1
usemtl None
s off
f 9/9/9 10/10/10 11/11/11 12/12/12 

o iMaggL
v -4.08694 -1.29626 0
v -2.50339 -1.29626 0
v -2.50339 1.29626 0
v -4.08694 1.29626 0
vt 7.94729e-09 0
vt 0.163021 0
vt 0.163021 0.47419
vt 7.94729e-09 0.47419
vn 0 -0 1
vn 0 -0 1
vn 0 -0 1
vn 0 -0 1
usemtl None
s off
f 13/13/13 14/14/14 15/15/15 16/16/16 

